<svg width="20" height="20" viewBox="0 0 20 20" fill="none" xmlns="http://www.w3.org/2000/svg">
<path d="M15.0002 6.66683H14.1668V5.00016C14.1668 2.70016 12.3002 0.833496 10.0002 0.833496C7.70016 0.833496 5.8335 2.70016 5.8335 5.00016V6.66683H5.00016C4.0835 6.66683 3.3335 7.41683 3.3335 8.3335V16.6668C3.3335 17.5835 4.0835 18.3335 5.00016 18.3335H15.0002C15.9168 18.3335 16.6668 17.5835 16.6668 16.6668V8.3335C16.6668 7.41683 15.9168 6.66683 15.0002 6.66683ZM10.0002 14.1668C9.0835 14.1668 8.3335 13.4168 8.3335 12.5002C8.3335 11.5835 9.0835 10.8335 10.0002 10.8335C10.9168 10.8335 11.6668 11.5835 11.6668 12.5002C11.6668 13.4168 10.9168 14.1668 10.0002 14.1668ZM12.5835 6.66683H7.41683V5.00016C7.41683 3.57516 8.57516 2.41683 10.0002 2.41683C11.4252 2.41683 12.5835 3.57516 12.5835 5.00016V6.66683Z" fill="#A5B0C1"/>
</svg>
